<svg width="428" height="465" viewBox="0 0 428 465" fill="none" xmlns="http://www.w3.org/2000/svg">
<path d="M2.32604 407.31C1.44512 406.753 0.762944 405.953 0.370794 405.017C-0.0213562 404.08 -0.104793 403.051 0.131636 402.068L52.8519 179.1C53.4988 176.949 54.9289 175.09 56.8841 173.858L370.682 0.892329C371.648 0.426974 372.714 0.18457 373.796 0.18457C374.877 0.18457 375.943 0.426974 376.909 0.892329C377.789 1.45018 378.472 2.24921 378.869 3.18456C379.265 4.11991 379.357 5.1479 379.131 6.13372L326.301 228.893C325.674 231.053 324.239 232.918 322.269 234.134L8.55264 407.1C7.60439 407.598 6.54696 407.877 5.46548 407.913C4.38399 407.949 3.30864 407.743 2.32604 407.31V407.31Z" fill="#9854CB"/>
<path opacity="0.8" d="M2.32604 407.31C1.44512 406.753 0.762944 405.953 0.370794 405.017C-0.0213562 404.08 -0.104793 403.051 0.131636 402.068L52.8519 179.1C53.4988 176.949 54.9289 175.09 56.8841 173.858L370.682 0.892329C371.648 0.426974 372.714 0.18457 373.796 0.18457C374.877 0.18457 375.943 0.426974 376.909 0.892329C377.789 1.45018 378.472 2.24921 378.869 3.18456C379.265 4.11991 379.357 5.1479 379.131 6.13372L326.301 228.893C325.674 231.053 324.239 232.918 322.269 234.134L8.55264 407.1C7.60439 407.598 6.54696 407.877 5.46548 407.913C4.38399 407.949 3.30864 407.743 2.32604 407.31V407.31Z" fill="white"/>
<path d="M58.8859 182.48L6.16562 405.501C5.69932 407.414 6.79654 408.122 8.55206 407.204L322.35 234.134C324.321 232.918 325.756 231.052 326.382 228.892L379.13 5.87119C379.569 3.95808 378.499 3.25049 376.716 4.19394L62.973 177.238C60.992 178.456 59.5399 180.318 58.8859 182.48V182.48Z" fill="#9854CB"/>
<path opacity="0.6" d="M58.8859 182.48L6.16562 405.501C5.69932 407.414 6.79654 408.122 8.55206 407.204L322.35 234.134C324.321 232.918 325.756 231.052 326.382 228.892L379.13 5.87119C379.569 3.95808 378.499 3.25049 376.716 4.19394L62.973 177.238C60.992 178.456 59.5399 180.318 58.8859 182.48V182.48Z" fill="white"/>
<path opacity="0.05" d="M58.8859 182.48L6.16562 405.501C5.69932 407.414 6.79654 408.122 8.55206 407.204L322.35 234.134C324.321 232.918 325.756 231.052 326.382 228.892L379.13 5.87119C379.569 3.95808 378.499 3.25049 376.716 4.19394L62.973 177.238C60.992 178.456 59.5399 180.318 58.8859 182.48V182.48Z" fill="#27104E"/>
<path d="M382.971 4.03665C381.992 3.58512 380.914 3.36162 379.827 3.38439C378.74 3.40717 377.674 3.67559 376.717 4.16769L62.9734 177.238C62.057 177.788 61.3164 178.567 60.8326 179.491C60.3488 180.416 60.1404 181.45 60.2304 182.48L101.375 458.727C101.575 459.78 101.99 460.786 102.597 461.685C103.204 462.585 103.992 463.361 104.914 463.968C105.884 464.434 106.955 464.677 108.041 464.677C109.127 464.677 110.197 464.434 111.168 463.968L425.048 290.767C425.96 290.213 426.697 289.433 427.181 288.51C427.664 287.586 427.875 286.555 427.791 285.525L386.646 9.22561C386.424 8.17129 385.984 7.16972 385.353 6.27897C384.722 5.38822 383.912 4.62605 382.971 4.03665V4.03665Z" fill="#9854CB"/>
<path opacity="0.8" d="M382.971 4.03665C381.992 3.58512 380.914 3.36162 379.827 3.38439C378.74 3.40717 377.674 3.67559 376.717 4.16769L62.9734 177.238C62.057 177.788 61.3164 178.567 60.8326 179.491C60.3488 180.416 60.1404 181.45 60.2304 182.48L101.375 458.727C101.575 459.78 101.99 460.786 102.597 461.685C103.204 462.585 103.992 463.361 104.914 463.968C105.884 464.434 106.955 464.677 108.041 464.677C109.127 464.677 110.197 464.434 111.168 463.968L425.048 290.767C425.96 290.213 426.697 289.433 427.181 288.51C427.664 287.586 427.875 286.555 427.791 285.525L386.646 9.22561C386.424 8.17129 385.984 7.16972 385.353 6.27897C384.722 5.38822 383.912 4.62605 382.971 4.03665V4.03665Z" fill="white"/>
<path d="M66.2922 185.86L107.437 462.107C107.448 462.519 107.577 462.92 107.81 463.267C108.043 463.614 108.372 463.893 108.759 464.074C109.146 464.255 109.578 464.331 110.008 464.294C110.437 464.256 110.848 464.108 111.195 463.863L425.048 290.766C425.96 290.213 426.697 289.432 427.181 288.509C427.664 287.586 427.875 286.554 427.791 285.525L386.646 9.22509C386.64 8.81136 386.513 8.40751 386.28 8.05874C386.047 7.70998 385.717 7.43012 385.327 7.25053C384.937 7.07095 384.502 6.99873 384.071 7.04199C383.64 7.08525 383.231 7.24229 382.888 7.49546L69.1175 180.461C68.1614 181.015 67.3889 181.815 66.8889 182.771C66.389 183.726 66.1821 184.797 66.2922 185.86V185.86Z" fill="#9854CB"/>
<path opacity="0.95" d="M66.2922 185.86L107.437 462.107C107.448 462.519 107.577 462.92 107.81 463.267C108.043 463.614 108.372 463.893 108.759 464.074C109.146 464.255 109.578 464.331 110.008 464.294C110.437 464.256 110.848 464.108 111.195 463.863L425.048 290.766C425.96 290.213 426.697 289.432 427.181 288.509C427.664 287.586 427.875 286.554 427.791 285.525L386.646 9.22509C386.64 8.81136 386.513 8.40751 386.28 8.05874C386.047 7.70998 385.717 7.43012 385.327 7.25053C384.937 7.07095 384.502 6.99873 384.071 7.04199C383.64 7.08525 383.231 7.24229 382.888 7.49546L69.1175 180.461C68.1614 181.015 67.3889 181.815 66.8889 182.771C66.389 183.726 66.1821 184.797 66.2922 185.86Z" fill="white"/>
<path d="M89.1413 376.096L52.3029 396.407C51.5524 396.255 50.7768 396.255 50.0262 396.407L6.5498 404.4L86.7549 359.927L89.1413 376.096Z" fill="#9854CB"/>
<path opacity="0.5" d="M89.1413 376.096L52.3029 396.407C51.5524 396.255 50.7768 396.255 50.0262 396.407L6.5498 404.4L86.7549 359.927L89.1413 376.096Z" fill="white"/>
<path opacity="0.2" d="M89.1413 376.096L52.3029 396.407C51.5524 396.255 50.7768 396.255 50.0262 396.407L6.5498 404.4L86.7549 359.927L89.1413 376.096Z" fill="#27104E"/>
<path d="M101.156 456.63L55.8963 398.346C55.0244 397.318 53.8174 396.598 52.4675 396.302L89.1413 376.096L101.156 456.63Z" fill="#9854CB"/>
<path opacity="0.6" d="M101.156 456.63L55.8963 398.346C55.0244 397.318 53.8174 396.598 52.4675 396.302L89.1413 376.096L101.156 456.63Z" fill="white"/>
<path opacity="0.1" d="M101.156 456.63L55.8963 398.346C55.0244 397.318 53.8174 396.598 52.4675 396.302L89.1413 376.096L101.156 456.63Z" fill="#27104E"/>
<path d="M99.7572 459.356L55.8693 404.976C55.1364 404.172 54.2156 403.545 53.1815 403.144C52.1474 402.743 51.029 402.581 49.917 402.67L8.93671 408.331C6.63617 408.567 4.31295 408.167 2.2438 407.178C0.570578 406.261 0.844865 405.212 2.87468 404.845L49.9444 396.171C51.0384 396.024 52.1535 396.15 53.1819 396.535C54.2102 396.921 55.117 397.554 55.8144 398.372L105.764 462.632C106.971 464.23 106.615 464.754 104.941 463.837C102.974 462.618 101.223 461.105 99.7572 459.356Z" fill="#9854CB"/>
<path opacity="0.8" d="M99.7572 459.356L55.8693 404.976C55.1364 404.172 54.2156 403.545 53.1815 403.144C52.1474 402.743 51.029 402.581 49.917 402.67L8.93671 408.331C6.63617 408.567 4.31295 408.167 2.2438 407.178C0.570578 406.261 0.844865 405.212 2.87468 404.845L49.9444 396.171C51.0384 396.024 52.1535 396.15 53.1819 396.535C54.2102 396.921 55.117 397.554 55.8144 398.372L105.764 462.632C106.971 464.23 106.615 464.754 104.941 463.837C102.974 462.618 101.223 461.105 99.7572 459.356Z" fill="white"/>
<path d="M379.213 4.74397C379.209 3.94446 378.999 3.15815 378.602 2.45434C378.205 1.75053 377.633 1.15081 376.936 0.708078C375.966 0.242457 374.895 0 373.809 0C372.723 0 371.653 0.242457 370.682 0.708078L56.8841 173.857C54.9339 175.094 53.5053 176.951 52.8519 179.099L45.4185 210.547L51.453 213.875L371.67 37.2406L379.131 5.79223C379.169 5.42623 379.169 5.05755 379.131 4.69154L379.213 4.74397Z" fill="#9854CB"/>
<path opacity="0.6" d="M379.131 5.84457C379.569 3.93147 378.5 3.22388 376.717 4.16733L62.9734 177.238C61.0027 178.46 59.5608 180.322 58.9137 182.479L51.4802 213.928L371.697 37.2929L379.131 5.84457Z" fill="#27104E"/>
<path opacity="0.5" d="M60.4775 179.439C59.7406 180.338 59.2081 181.373 58.914 182.479L51.453 213.928L45.4185 210.547L52.8519 179.099C53.1624 177.993 53.7035 176.959 54.4429 176.059L60.4775 179.439Z" fill="#27104E"/>
<path opacity="0.2" d="M379.213 4.74438C379.076 3.6699 378.089 3.38162 376.717 4.16782L62.9737 177.238C62.0042 177.806 61.1645 178.555 60.5051 179.44L54.4705 176.112C55.1274 175.234 55.9565 174.486 56.9117 173.91L370.683 0.891956C371.653 0.426335 372.724 0.183838 373.81 0.183838C374.895 0.183838 375.966 0.426335 376.937 0.891956C377.607 1.31703 378.163 1.88766 378.559 2.5572C378.954 3.22674 379.179 3.9762 379.213 4.74438V4.74438Z" fill="#1447E6"/>
<path d="M386.894 11.8722L386.51 9.25146V8.85833C385.993 6.95215 384.776 5.28713 383.081 4.1673C382.102 3.71578 381.024 3.49223 379.937 3.51501C378.85 3.53778 377.784 3.80624 376.827 4.29835L62.9736 177.238C62.0161 177.794 61.2599 178.617 60.8067 179.597V179.597C60.3303 180.504 60.1397 181.523 60.2581 182.532L66.1829 222.104L72.2175 225.459L392.462 48.8239L386.894 11.8722Z" fill="#9854CB"/>
<path opacity="0.4" d="M392.434 48.8242L72.1897 225.459L66.2923 185.86C66.1655 184.854 66.3465 183.835 66.8135 182.925C67.2899 181.96 68.0409 181.143 68.9805 180.566L382.779 7.60069C383.073 7.38089 383.42 7.23377 383.788 7.17233C384.156 7.11088 384.535 7.13701 384.89 7.24839C385.245 7.35976 385.566 7.55297 385.824 7.81095C386.083 8.06893 386.271 8.38375 386.372 8.72761V8.7538V9.14689L386.756 11.7676L392.434 48.8242Z" fill="#1447E6"/>
<path opacity="0.5" d="M72.1899 225.459L66.1554 222.105L60.2305 182.532C60.1121 181.524 60.3027 180.504 60.7791 179.597L66.8411 182.925C66.3647 183.832 66.1741 184.852 66.2925 185.86L72.1899 225.459Z" fill="#27104E"/>
<path opacity="0.3" d="M386.4 8.75335C386.315 8.39627 386.137 8.0655 385.882 7.7917C385.627 7.51791 385.305 7.30995 384.944 7.18711C384.582 7.06427 384.195 7.03051 383.816 7.08898C383.438 7.14746 383.081 7.29628 382.779 7.52162L68.9809 180.487C68.0335 181.048 67.2873 181.87 66.8413 182.846L60.7793 179.518C61.2325 178.539 61.9888 177.715 62.9463 177.159L376.717 4.19333C377.675 3.70122 378.741 3.4328 379.828 3.41003C380.915 3.38725 381.992 3.6108 382.971 4.06232C384.69 5.15907 385.914 6.83373 386.4 8.75335Z" fill="#1447E6"/>
<g opacity="0.2">
<path d="M95.0663 186.174C94.9324 184.299 95.3368 182.425 96.2359 180.753C97.135 179.081 98.4946 177.675 100.168 176.687C103.515 174.853 106.614 176.111 107.135 179.518C107.27 181.396 106.862 183.273 105.958 184.946C105.054 186.618 103.687 188.022 102.006 189.005C101.408 189.487 100.682 189.801 99.9078 189.911C99.134 190.022 98.3432 189.925 97.6236 189.632C96.904 189.338 96.2839 188.86 95.8323 188.249C95.3808 187.639 95.1156 186.92 95.0663 186.174Z" fill="#27104E"/>
<path d="M137.39 162.85C137.25 160.971 137.655 159.092 138.56 157.418C139.464 155.744 140.835 154.341 142.52 153.363C145.839 151.503 148.966 152.787 149.46 156.168C149.599 158.047 149.197 159.927 148.297 161.604C147.398 163.281 146.036 164.691 144.358 165.681C141.011 167.515 137.884 166.257 137.39 162.85Z" fill="#27104E"/>
<path d="M179.66 139.526C179.52 137.65 179.922 135.773 180.821 134.1C181.721 132.428 183.084 131.023 184.762 130.039C188.108 128.205 191.208 129.463 191.729 132.87C191.842 134.745 191.426 136.615 190.524 138.284C189.621 139.953 188.266 141.359 186.6 142.356C183.281 144.191 180.154 142.933 179.66 139.526Z" fill="#27104E"/>
<path d="M264.226 92.8779C264.086 91.0019 264.488 89.1251 265.388 87.4523C266.287 85.7794 267.65 84.3746 269.328 83.391C272.675 81.5565 275.774 82.8144 276.295 86.2213C276.426 88.0991 276.018 89.9754 275.114 91.6475C274.21 93.3195 272.845 94.7237 271.166 95.7082C267.847 97.5427 264.72 96.2848 264.226 92.8779Z" fill="#27104E"/>
<path d="M306.551 69.5273C306.41 67.6483 306.815 65.7687 307.72 64.0951C308.625 62.4214 309.995 61.0185 311.68 60.0404C314.999 58.2059 318.126 59.4638 318.62 62.8707C318.76 64.7467 318.358 66.6235 317.458 68.2964C316.559 69.9693 315.196 71.3741 313.518 72.3577C310.171 74.2708 307.099 72.9342 306.551 69.5273Z" fill="#27104E"/>
<path d="M348.82 46.2033C348.686 44.3281 349.091 42.4536 349.99 40.7818C350.889 39.1099 352.249 37.7043 353.922 36.7164C357.269 34.8819 360.368 36.1399 360.889 39.5468C361.024 41.425 360.616 43.3023 359.712 44.9749C358.808 46.6475 357.441 48.0513 355.76 49.0337C352.441 50.8682 349.314 49.6102 348.82 46.2033Z" fill="#27104E"/>
</g>
<path d="M107.876 174.015C107.879 175.184 107.769 176.351 107.547 177.5C107.424 178.093 107.269 178.679 107.081 179.256C106.342 181.951 104.531 184.264 102.034 185.703C100.409 186.599 98.5613 187.061 96.6851 187.04H95.2038L95.0393 186.28C94.8743 184.693 95.1487 183.094 95.8347 181.641C96.992 181.806 98.1742 181.613 99.2086 181.091C100.023 180.494 100.69 179.735 101.164 178.865C101.638 177.996 101.907 177.038 101.952 176.059C101.964 175.972 101.964 175.884 101.952 175.797C101.983 175.229 101.983 174.661 101.952 174.093C101.697 168.561 99.7303 163.226 96.301 158.762C95.1214 157.164 93.7801 155.681 92.2963 154.333C91.0682 153.233 89.7158 152.266 88.2641 151.451C87.1519 150.664 85.85 150.157 84.4787 149.979C83.1075 149.8 81.7112 149.955 80.4191 150.428C79.3244 151.245 78.4707 152.319 77.9418 153.546C77.4128 154.773 77.2267 156.11 77.4018 157.426C77.42 159.033 77.6317 160.634 78.0327 162.195L72.9582 165V164.685C72.2422 162.325 71.8639 159.883 71.8336 157.426C71.6213 155.153 72.0545 152.868 73.0875 150.811C74.1206 148.754 75.7153 147.001 77.7035 145.737C81.4614 143.667 86.2342 144.034 91.2265 146.76C93.533 148.063 95.6302 149.679 97.4531 151.555C98.8619 152.956 100.138 154.473 101.266 156.089C105.228 161.333 107.523 167.556 107.876 174.015V174.015Z" fill="#37474F"/>
<path d="M150.2 150.664C150.205 151.833 150.095 153 149.871 154.15C149.77 154.762 149.623 155.366 149.432 155.958C148.663 158.633 146.846 160.923 144.358 162.352C142.733 163.249 140.885 163.71 139.009 163.689H137.555C137.472 163.442 137.416 163.187 137.391 162.929C137.204 161.345 137.469 159.742 138.159 158.29C139.316 158.455 140.498 158.263 141.533 157.74C142.354 157.15 143.026 156.392 143.501 155.521C143.976 154.651 144.24 153.689 144.276 152.708C144.288 152.63 144.288 152.551 144.276 152.472C144.321 151.897 144.321 151.318 144.276 150.743C143.754 143.235 140.31 136.186 134.62 130.983C133.398 129.876 132.044 128.908 130.588 128.1C129.473 127.317 128.17 126.816 126.799 126.642C125.428 126.468 124.033 126.627 122.743 127.104C121.651 127.916 120.798 128.986 120.269 130.208C119.74 131.43 119.553 132.763 119.726 134.075C119.744 135.683 119.956 137.283 120.357 138.845L115.282 141.649V141.334C114.574 138.973 114.205 136.531 114.185 134.075C113.97 131.805 114.399 129.522 115.427 127.465C116.455 125.408 118.044 123.654 120.027 122.387C123.785 120.317 128.586 120.683 133.55 123.409C135.857 124.713 137.954 126.328 139.777 128.205C141.173 129.616 142.448 131.132 143.59 132.739C147.563 137.976 149.859 144.204 150.2 150.664V150.664Z" fill="#37474F"/>
<path d="M192.442 127.34C192.441 128.516 192.34 129.691 192.141 130.851C192.027 131.455 191.872 132.05 191.674 132.634C190.944 135.319 189.129 137.619 186.627 139.028C185.004 139.932 183.157 140.403 181.278 140.391C180.795 140.43 180.308 140.43 179.825 140.391C179.741 140.144 179.686 139.889 179.66 139.631C179.473 138.047 179.739 136.444 180.428 134.992C181.577 135.175 182.756 134.981 183.775 134.442C184.597 133.853 185.271 133.095 185.746 132.224C186.221 131.353 186.484 130.392 186.518 129.41C186.531 129.332 186.531 129.252 186.518 129.174C186.564 128.598 186.564 128.02 186.518 127.445C186.249 121.923 184.284 116.6 180.867 112.14C179.695 110.536 178.352 109.052 176.862 107.711C175.635 106.602 174.282 105.626 172.83 104.802C171.715 104.019 170.412 103.518 169.041 103.344C167.67 103.17 166.275 103.329 164.985 103.806C163.888 104.621 163.033 105.695 162.504 106.922C161.975 108.149 161.79 109.487 161.968 110.803C161.986 112.411 162.198 114.011 162.599 115.573L157.497 118.377V118.036C156.782 115.685 156.404 113.252 156.372 110.803C156.372 105.326 158.457 101.185 162.215 99.1148C165.973 97.0445 170.773 97.3852 175.738 100.137C178.047 101.437 180.153 103.043 181.992 104.907C183.387 106.318 184.662 107.834 185.804 109.44C189.773 114.673 192.077 120.888 192.442 127.34V127.34Z" fill="#37474F"/>
<path d="M276.927 80.7708C276.939 81.939 276.838 83.1058 276.625 84.2563C276.502 84.8662 276.346 85.4697 276.159 86.0646C275.39 88.7398 273.573 91.0296 271.084 92.4591C269.465 93.346 267.629 93.8072 265.763 93.7956C265.279 93.8355 264.793 93.8355 264.309 93.7956C264.216 93.5318 264.152 93.2596 264.117 92.9832C263.937 91.4188 264.192 89.8367 264.858 88.397C266.021 88.5758 267.214 88.392 268.259 87.8728C269.128 87.2693 269.84 86.4824 270.34 85.5735C270.839 84.6645 271.113 83.6578 271.139 82.6315C271.124 82.5712 271.124 82.5083 271.139 82.448C271.17 81.8806 271.17 81.312 271.139 80.7446C270.874 75.1943 268.899 69.8425 265.461 65.3611C264.28 63.7561 262.929 62.2718 261.429 60.9321C260.217 59.8507 258.883 58.9014 257.452 58.1018C256.339 57.3149 255.037 56.8087 253.666 56.6301C252.295 56.4514 250.899 56.6061 249.607 57.0797C248.521 57.9024 247.676 58.9784 247.152 60.204C246.628 61.4296 246.444 62.7635 246.617 64.0769C246.626 65.6577 246.828 67.2321 247.22 68.768L242.365 71.6507V71.3887C241.651 69.037 241.273 66.604 241.24 64.1556C241.24 58.6783 243.325 54.5376 247.083 52.4673C249.225 51.4602 251.612 51.0237 253.992 51.2036C256.371 51.3834 258.656 52.1731 260.606 53.4894C262.909 54.7659 264.998 56.3648 266.805 58.2328C268.208 59.645 269.492 61.161 270.645 62.7666C274.5 68.0699 276.68 74.3187 276.927 80.7708Z" fill="#37474F"/>
<path d="M319.388 57.4202C319.391 58.5979 319.281 59.7735 319.059 60.9319C318.922 61.5609 318.785 62.1375 318.593 62.7402C317.856 65.4162 316.042 67.7053 313.546 69.1085C311.881 70.0278 309.982 70.4902 308.06 70.445C307.576 70.4711 307.09 70.4711 306.606 70.445C306.513 70.1723 306.449 69.8914 306.414 69.6064C306.229 68.0505 306.485 66.4758 307.154 65.0464C308.321 65.2309 309.518 65.0372 310.556 64.4961C311.43 63.8968 312.145 63.1109 312.645 62.201C313.145 61.2911 313.416 60.2822 313.436 59.2547C313.451 59.1944 313.451 59.1315 313.436 59.0712C313.468 58.5038 313.468 57.9352 313.436 57.3678C313.179 51.8198 311.192 46.4719 307.731 42.0105C306.558 40.3991 305.216 38.9063 303.726 37.5553C302.509 36.4798 301.176 35.531 299.748 34.725C298.634 33.9424 297.331 33.4409 295.96 33.2669C294.588 33.0928 293.193 33.2518 291.903 33.7291C290.802 34.5402 289.944 35.6137 289.415 36.8419C288.885 38.07 288.703 39.4097 288.886 40.7264C288.911 42.2976 289.113 43.8616 289.49 45.3912L284.415 48.2216V47.9595C283.701 45.6079 283.323 43.1748 283.291 40.7264C283.291 35.2491 285.375 31.0822 289.16 29.0381C292.946 26.9939 297.719 27.3084 302.656 30.0339C305.023 31.3627 307.169 33.0235 309.02 34.9608V34.9608C310.424 36.3718 311.709 37.8879 312.86 39.4946C316.794 44.7462 319.061 50.9698 319.388 57.4202V57.4202Z" fill="#37474F"/>
<path d="M361.63 34.0957C361.633 35.2735 361.523 36.449 361.301 37.6074C361.187 38.1997 361.04 38.7857 360.862 39.3633C360.108 42.0591 358.289 44.3704 355.788 45.8102C354.156 46.689 352.311 47.141 350.439 47.1206H349.012C348.919 46.8478 348.855 46.5669 348.82 46.282C348.64 44.7261 348.896 43.1524 349.561 41.7219C350.727 41.8927 351.92 41.6997 352.962 41.1716C353.809 40.5571 354.497 39.7649 354.973 38.8561C355.448 37.9473 355.699 36.9462 355.705 35.9302C355.718 35.8785 355.718 35.8247 355.705 35.773C355.75 35.1972 355.75 34.619 355.705 34.0433C355.453 28.4987 353.476 23.1519 350.027 18.686C348.845 17.0818 347.494 15.5977 345.995 14.2571C344.795 13.1655 343.47 12.2072 342.045 11.4005C340.93 10.6179 339.627 10.1165 338.256 9.94239C336.885 9.76833 335.49 9.92733 334.2 10.4047C333.099 11.2158 332.241 12.2892 331.711 13.5174C331.182 14.7456 330.999 16.0852 331.183 17.4019C331.192 18.9827 331.395 20.5571 331.786 22.0929L326.684 24.8971V24.635C325.97 22.2834 325.592 19.8503 325.56 17.4019C325.56 11.9247 327.644 7.78394 331.402 5.71359C333.543 4.70834 335.928 4.27047 338.306 4.44563C340.685 4.6208 342.971 5.4026 344.925 6.70947C347.212 7.99701 349.291 9.59481 351.097 11.4529C352.517 12.8608 353.802 14.3868 354.937 16.0129C358.964 21.289 361.29 27.5739 361.63 34.0957V34.0957Z" fill="#37474F"/>
<path d="M79.1844 271.976L399.374 95.4986L392.434 48.824L72.1897 225.328L79.1844 271.976Z" fill="#9854CB"/>
<g opacity="0.65">
<path d="M79.1844 271.976L399.374 95.4986L392.434 48.824L72.1897 225.328L79.1844 271.976Z" fill="white"/>
</g>
<path d="M104.42 283.298C104.831 285.918 107.328 286.757 109.906 285.263L133.935 272.16C135.264 271.409 136.354 270.328 137.089 269.03C137.823 267.733 138.174 266.269 138.104 264.795C137.72 262.175 135.224 261.336 132.618 262.83L108.589 275.933C107.262 276.686 106.174 277.768 105.439 279.065C104.705 280.362 104.353 281.825 104.42 283.298V283.298Z" fill="#9854CB"/>
<path d="M144.962 260.943C145.346 263.564 147.842 264.402 150.448 262.909L174.476 249.805C175.813 249.06 176.91 247.981 177.65 246.682C178.39 245.384 178.744 243.918 178.673 242.441C178.289 239.82 175.93 238.982 173.187 240.475L149.159 253.579C147.822 254.324 146.725 255.404 145.985 256.702C145.245 258 144.891 259.467 144.962 260.943V260.943Z" fill="#9854CB"/>
<path d="M185.503 238.588C185.887 241.209 188.383 242.048 190.989 240.554L215.017 227.45C216.351 226.705 217.445 225.624 218.18 224.325C218.915 223.027 219.263 221.561 219.187 220.086C218.803 217.466 216.307 216.627 213.701 218.121L189.672 231.224C188.341 231.972 187.249 233.054 186.514 234.352C185.779 235.649 185.43 237.114 185.503 238.588V238.588Z" fill="#9854CB"/>
<path d="M226.017 216.234C226.401 218.855 228.897 219.693 231.503 218.2L255.532 204.939C256.863 204.197 257.956 203.121 258.691 201.827C259.426 200.533 259.775 199.071 259.701 197.601C259.317 194.98 256.821 194.142 254.215 195.609L230.296 208.87C228.943 209.602 227.827 210.677 227.072 211.976C226.317 213.276 225.952 214.749 226.017 216.234V216.234Z" fill="#9854CB"/>
<path d="M266.558 193.853C266.942 196.474 269.301 197.313 272.044 195.845L296.072 182.584C297.405 181.842 298.499 180.766 299.239 179.473C299.978 178.18 300.335 176.719 300.269 175.246C299.885 172.626 297.389 171.787 294.783 173.255L270.755 186.515C269.42 187.256 268.324 188.331 267.584 189.625C266.844 190.918 266.489 192.381 266.558 193.853V193.853Z" fill="#9854CB"/>
<path d="M307.1 171.499C307.484 174.119 309.98 174.958 312.586 173.49L336.614 160.23C337.946 159.482 339.038 158.4 339.773 157.102C340.507 155.804 340.857 154.339 340.784 152.866C340.4 150.245 337.904 149.406 335.298 150.9L311.269 164.161C309.94 164.905 308.849 165.981 308.114 167.275C307.379 168.568 307.029 170.029 307.1 171.499Z" fill="#9854CB"/>
<path d="M347.614 149.144C347.998 151.765 350.494 152.603 353.1 151.11L377.128 138.006C378.467 137.264 379.566 136.184 380.306 134.886C381.046 133.587 381.399 132.119 381.325 130.642C380.941 128.021 378.582 127.183 375.839 128.676L351.811 141.937C350.495 142.665 349.411 143.719 348.672 144.988C347.933 146.257 347.568 147.693 347.614 149.144V149.144Z" fill="#9854CB"/>
<g opacity="0.17">
<path d="M408.042 283.56C407.736 283.585 407.431 283.504 407.183 283.33C406.936 283.157 406.763 282.903 406.698 282.616L387.113 152.001C387.101 151.862 387.12 151.723 387.169 151.593C387.218 151.462 387.296 151.343 387.398 151.244C387.499 151.144 387.622 151.067 387.757 151.017C387.892 150.966 388.038 150.944 388.183 150.952C388.49 150.936 388.793 151.021 389.043 151.192C389.293 151.364 389.473 151.612 389.554 151.896L409.112 282.511C409.124 282.65 409.104 282.789 409.055 282.919C409.006 283.05 408.928 283.169 408.827 283.268C408.725 283.368 408.603 283.445 408.467 283.495C408.332 283.546 408.187 283.568 408.042 283.56V283.56Z" fill="#9854CB"/>
<path d="M367.446 305.94C367.14 305.966 366.835 305.885 366.587 305.711C366.34 305.537 366.167 305.283 366.102 304.997L346.517 174.381C346.505 174.243 346.524 174.104 346.573 173.973C346.622 173.843 346.7 173.724 346.801 173.624C346.903 173.525 347.025 173.447 347.161 173.397C347.296 173.347 347.441 173.325 347.586 173.333C347.892 173.307 348.197 173.389 348.445 173.562C348.692 173.736 348.865 173.99 348.931 174.277L368.57 304.892C368.583 305.035 368.563 305.179 368.511 305.314C368.459 305.448 368.376 305.57 368.268 305.671C368.16 305.771 368.031 305.847 367.889 305.894C367.746 305.94 367.595 305.956 367.446 305.94V305.94Z" fill="#9854CB"/>
<path d="M326.959 328.295C326.651 328.316 326.345 328.233 326.094 328.061C325.843 327.888 325.664 327.637 325.588 327.351L306.03 196.736C306.019 196.6 306.037 196.463 306.085 196.334C306.132 196.205 306.208 196.088 306.306 195.989C306.404 195.89 306.524 195.812 306.656 195.76C306.788 195.708 306.93 195.683 307.073 195.687C307.382 195.661 307.691 195.741 307.943 195.914C308.195 196.088 308.373 196.342 308.444 196.631L328.029 327.246C328.041 327.385 328.022 327.524 327.973 327.654C327.924 327.785 327.846 327.904 327.744 328.003C327.643 328.103 327.52 328.18 327.385 328.23C327.25 328.281 327.104 328.303 326.959 328.295V328.295Z" fill="#9854CB"/>
<path d="M286.418 350.676C286.106 350.696 285.797 350.61 285.546 350.432C285.294 350.254 285.117 349.997 285.046 349.706L265.462 219.091C265.454 218.955 265.476 218.818 265.527 218.691C265.578 218.563 265.656 218.448 265.757 218.351C265.858 218.255 265.979 218.18 266.113 218.131C266.246 218.082 266.389 218.061 266.531 218.069C266.84 218.042 267.149 218.123 267.401 218.296C267.653 218.469 267.831 218.724 267.903 219.012L287.46 349.628C287.472 349.764 287.453 349.9 287.406 350.029C287.358 350.158 287.283 350.276 287.185 350.375C287.086 350.473 286.967 350.552 286.835 350.603C286.703 350.655 286.561 350.68 286.418 350.676V350.676Z" fill="#9854CB"/>
<path d="M245.877 373.03C245.568 373.057 245.259 372.976 245.007 372.803C244.755 372.63 244.577 372.375 244.505 372.086L224.811 241.471C224.799 241.333 224.818 241.194 224.867 241.063C224.916 240.932 224.994 240.813 225.095 240.714C225.197 240.615 225.319 240.537 225.455 240.487C225.59 240.437 225.735 240.415 225.88 240.423C226.189 240.401 226.495 240.484 226.745 240.657C226.996 240.829 227.175 241.08 227.252 241.366L246.809 371.982C246.821 372.109 246.805 372.237 246.765 372.359C246.724 372.481 246.658 372.594 246.571 372.691C246.485 372.789 246.379 372.869 246.259 372.927C246.14 372.985 246.01 373.02 245.877 373.03Z" fill="#9854CB"/>
<path d="M205.307 395.411C204.999 395.43 204.693 395.342 204.447 395.165C204.2 394.987 204.028 394.73 203.963 394.441L184.378 263.826C184.378 263.275 184.762 262.83 185.448 262.804C185.754 262.778 186.059 262.859 186.307 263.033C186.554 263.207 186.727 263.46 186.792 263.747L206.377 394.362C206.389 394.501 206.37 394.64 206.321 394.77C206.272 394.901 206.194 395.02 206.092 395.119C205.991 395.219 205.868 395.296 205.733 395.347C205.598 395.397 205.452 395.419 205.307 395.411V395.411Z" fill="#9854CB"/>
<path d="M164.766 417.765C164.458 417.787 164.152 417.704 163.901 417.532C163.651 417.359 163.471 417.108 163.395 416.822L143.837 286.207C143.825 286.068 143.845 285.929 143.894 285.798C143.943 285.668 144.021 285.549 144.122 285.449C144.224 285.35 144.346 285.273 144.482 285.222C144.617 285.172 144.762 285.15 144.907 285.158C145.213 285.132 145.518 285.214 145.766 285.388C146.013 285.561 146.186 285.815 146.251 286.102L165.836 416.717C165.848 416.855 165.829 416.995 165.78 417.125C165.731 417.256 165.653 417.375 165.551 417.474C165.45 417.574 165.328 417.651 165.192 417.701C165.057 417.751 164.911 417.773 164.766 417.765Z" fill="#9854CB"/>
<path d="M124.225 440.12C123.916 440.147 123.607 440.066 123.355 439.893C123.103 439.719 122.925 439.465 122.853 439.176L103.268 308.561C103.261 308.424 103.283 308.286 103.334 308.157C103.384 308.029 103.462 307.911 103.563 307.813C103.663 307.714 103.784 307.637 103.918 307.585C104.051 307.534 104.194 307.509 104.338 307.513C104.65 307.492 104.959 307.579 105.21 307.757C105.462 307.934 105.639 308.191 105.71 308.482L125.295 439.098C125.302 439.234 125.28 439.37 125.229 439.498C125.178 439.625 125.1 439.741 124.999 439.837C124.898 439.934 124.777 440.009 124.643 440.057C124.51 440.106 124.367 440.127 124.225 440.12V440.12Z" fill="#9854CB"/>
<path d="M109.604 342.159C109.393 342.179 109.18 342.148 108.984 342.071C108.787 341.993 108.614 341.87 108.48 341.713C108.382 341.617 108.31 341.501 108.267 341.374C108.225 341.247 108.214 341.112 108.235 340.98C108.256 340.848 108.309 340.722 108.39 340.613C108.47 340.504 108.576 340.414 108.699 340.35L392.544 183.764C392.823 183.626 393.143 183.582 393.451 183.639C393.76 183.696 394.039 183.851 394.244 184.078C394.341 184.176 394.412 184.294 394.452 184.422C394.493 184.551 394.501 184.686 394.477 184.819C394.453 184.951 394.398 185.076 394.314 185.184C394.231 185.292 394.123 185.38 393.998 185.441L110.125 342.001C109.967 342.093 109.789 342.147 109.604 342.159V342.159Z" fill="#9854CB"/>
<path d="M114.432 374.812C114.221 374.826 114.01 374.793 113.815 374.715C113.62 374.638 113.446 374.519 113.307 374.367C113.211 374.269 113.14 374.151 113.1 374.023C113.059 373.894 113.051 373.759 113.075 373.626C113.098 373.494 113.154 373.369 113.238 373.261C113.321 373.153 113.429 373.065 113.554 373.004L397.372 216.418C397.655 216.278 397.979 216.233 398.292 216.29C398.606 216.347 398.89 216.503 399.1 216.732C399.191 216.832 399.257 216.95 399.295 217.077C399.332 217.205 399.339 217.339 399.316 217.47C399.292 217.6 399.238 217.724 399.158 217.832C399.078 217.94 398.974 218.03 398.853 218.095L115.09 374.655C114.895 374.774 114.664 374.829 114.432 374.812V374.812Z" fill="#9854CB"/>
<path d="M119.315 407.466C119.104 407.48 118.893 407.446 118.698 407.369C118.503 407.292 118.329 407.173 118.19 407.021C118.094 406.921 118.023 406.801 117.982 406.67C117.942 406.54 117.933 406.402 117.957 406.268C117.981 406.134 118.037 406.007 118.12 405.897C118.203 405.786 118.312 405.696 118.437 405.632L402.282 249.071C402.561 248.934 402.881 248.89 403.189 248.947C403.498 249.004 403.777 249.159 403.983 249.386C404.079 249.484 404.15 249.601 404.19 249.73C404.231 249.858 404.239 249.994 404.215 250.126C404.191 250.258 404.136 250.383 404.052 250.492C403.969 250.6 403.861 250.688 403.736 250.749L119.918 407.309C119.736 407.412 119.527 407.467 119.315 407.466V407.466Z" fill="#9854CB"/>
<path d="M124.225 440.12C124.018 440.172 123.801 440.172 123.594 440.12C123.403 440.057 123.233 439.945 123.103 439.798C122.973 439.65 122.886 439.472 122.853 439.281L103.268 308.666C103.254 308.488 103.293 308.31 103.38 308.152C103.468 307.994 103.6 307.863 103.762 307.775L387.579 151.215C387.771 151.124 387.983 151.077 388.197 151.077C388.41 151.077 388.622 151.124 388.814 151.215C388.997 151.282 389.16 151.391 389.289 151.533C389.418 151.675 389.509 151.844 389.554 152.027L409.112 282.642C409.136 282.818 409.104 282.997 409.021 283.156C408.938 283.315 408.807 283.446 408.645 283.533L124.801 439.963C124.63 440.069 124.429 440.124 124.225 440.12ZM105.792 309.085L124.993 437.499L406.588 282.171L387.387 153.757L105.792 309.085Z" fill="#9854CB"/>
</g>
<g opacity="0.17">
<path d="M408.042 283.56C407.736 283.585 407.431 283.504 407.183 283.33C406.936 283.157 406.763 282.903 406.698 282.616L387.113 152.001C387.101 151.862 387.12 151.723 387.169 151.593C387.218 151.462 387.296 151.343 387.398 151.244C387.499 151.144 387.622 151.067 387.757 151.017C387.892 150.966 388.038 150.944 388.183 150.952C388.49 150.936 388.793 151.021 389.043 151.192C389.293 151.364 389.473 151.612 389.554 151.896L409.112 282.511C409.124 282.65 409.104 282.789 409.055 282.919C409.006 283.05 408.928 283.169 408.827 283.268C408.725 283.368 408.603 283.445 408.467 283.495C408.332 283.546 408.187 283.568 408.042 283.56V283.56Z" fill="#27104E"/>
<path d="M367.446 305.94C367.14 305.966 366.835 305.885 366.587 305.711C366.34 305.537 366.167 305.283 366.102 304.997L346.517 174.381C346.505 174.243 346.524 174.104 346.573 173.973C346.622 173.843 346.7 173.724 346.801 173.624C346.903 173.525 347.025 173.447 347.161 173.397C347.296 173.347 347.441 173.325 347.586 173.333C347.892 173.307 348.197 173.389 348.445 173.562C348.692 173.736 348.865 173.99 348.931 174.277L368.57 304.892C368.583 305.035 368.563 305.179 368.511 305.314C368.459 305.448 368.376 305.57 368.268 305.671C368.16 305.771 368.031 305.847 367.889 305.894C367.746 305.94 367.595 305.956 367.446 305.94V305.94Z" fill="#27104E"/>
<path d="M326.959 328.295C326.651 328.316 326.345 328.233 326.094 328.061C325.843 327.888 325.664 327.637 325.588 327.351L306.03 196.736C306.019 196.6 306.037 196.463 306.085 196.334C306.132 196.205 306.208 196.088 306.306 195.989C306.404 195.89 306.524 195.812 306.656 195.76C306.788 195.708 306.93 195.683 307.073 195.687C307.382 195.661 307.691 195.741 307.943 195.914C308.195 196.088 308.373 196.342 308.444 196.631L328.029 327.246C328.041 327.385 328.022 327.524 327.973 327.654C327.924 327.785 327.846 327.904 327.744 328.003C327.643 328.103 327.52 328.18 327.385 328.23C327.25 328.281 327.104 328.303 326.959 328.295V328.295Z" fill="#27104E"/>
<path d="M286.418 350.676C286.106 350.696 285.797 350.61 285.546 350.432C285.294 350.254 285.117 349.997 285.046 349.706L265.462 219.091C265.454 218.955 265.476 218.818 265.527 218.691C265.578 218.563 265.656 218.448 265.757 218.351C265.858 218.255 265.979 218.18 266.113 218.131C266.246 218.082 266.389 218.061 266.531 218.069C266.84 218.042 267.149 218.123 267.401 218.296C267.653 218.469 267.831 218.724 267.903 219.012L287.46 349.628C287.472 349.764 287.453 349.9 287.406 350.029C287.358 350.158 287.283 350.276 287.185 350.375C287.086 350.473 286.967 350.552 286.835 350.603C286.703 350.655 286.561 350.68 286.418 350.676V350.676Z" fill="#27104E"/>
<path d="M245.877 373.03C245.568 373.057 245.259 372.976 245.007 372.803C244.755 372.63 244.577 372.375 244.505 372.086L224.811 241.471C224.799 241.333 224.818 241.194 224.867 241.063C224.916 240.932 224.994 240.813 225.095 240.714C225.197 240.615 225.319 240.537 225.455 240.487C225.59 240.437 225.735 240.415 225.88 240.423C226.189 240.401 226.495 240.484 226.745 240.657C226.996 240.829 227.175 241.08 227.252 241.366L246.809 371.982C246.821 372.109 246.805 372.237 246.765 372.359C246.724 372.481 246.658 372.594 246.571 372.691C246.485 372.789 246.379 372.869 246.259 372.927C246.14 372.985 246.01 373.02 245.877 373.03Z" fill="#27104E"/>
<path d="M205.307 395.411C204.999 395.43 204.693 395.342 204.447 395.165C204.2 394.987 204.028 394.73 203.963 394.441L184.378 263.826C184.378 263.275 184.762 262.83 185.448 262.804C185.754 262.778 186.059 262.859 186.307 263.033C186.554 263.207 186.727 263.46 186.792 263.747L206.377 394.362C206.389 394.501 206.37 394.64 206.321 394.77C206.272 394.901 206.194 395.02 206.092 395.119C205.991 395.219 205.868 395.296 205.733 395.347C205.598 395.397 205.452 395.419 205.307 395.411V395.411Z" fill="#27104E"/>
<path d="M164.766 417.765C164.458 417.787 164.152 417.704 163.901 417.532C163.651 417.359 163.471 417.108 163.395 416.822L143.837 286.207C143.825 286.068 143.845 285.929 143.894 285.798C143.943 285.668 144.021 285.549 144.122 285.449C144.224 285.35 144.346 285.273 144.482 285.222C144.617 285.172 144.762 285.15 144.907 285.158C145.213 285.132 145.518 285.214 145.766 285.388C146.013 285.561 146.186 285.815 146.251 286.102L165.836 416.717C165.848 416.855 165.829 416.995 165.78 417.125C165.731 417.256 165.653 417.375 165.551 417.474C165.45 417.574 165.328 417.651 165.192 417.701C165.057 417.751 164.911 417.773 164.766 417.765Z" fill="#27104E"/>
<path d="M124.225 440.12C123.916 440.147 123.607 440.066 123.355 439.893C123.103 439.719 122.925 439.465 122.853 439.176L103.268 308.561C103.261 308.424 103.283 308.286 103.334 308.157C103.384 308.029 103.462 307.911 103.563 307.813C103.663 307.714 103.784 307.637 103.918 307.585C104.051 307.534 104.194 307.509 104.338 307.513C104.65 307.492 104.959 307.579 105.21 307.757C105.462 307.934 105.639 308.191 105.71 308.482L125.295 439.098C125.302 439.234 125.28 439.37 125.229 439.498C125.178 439.625 125.1 439.741 124.999 439.837C124.898 439.934 124.777 440.009 124.643 440.057C124.51 440.106 124.367 440.127 124.225 440.12V440.12Z" fill="#27104E"/>
<path d="M109.604 342.159C109.393 342.179 109.18 342.148 108.984 342.071C108.787 341.993 108.614 341.87 108.48 341.713C108.382 341.617 108.31 341.501 108.267 341.374C108.225 341.247 108.214 341.112 108.235 340.98C108.256 340.848 108.309 340.722 108.39 340.613C108.47 340.504 108.576 340.414 108.699 340.35L392.544 183.764C392.823 183.626 393.143 183.582 393.451 183.639C393.76 183.696 394.039 183.851 394.244 184.078C394.341 184.176 394.412 184.294 394.452 184.422C394.493 184.551 394.501 184.686 394.477 184.819C394.453 184.951 394.398 185.076 394.314 185.184C394.231 185.292 394.123 185.38 393.998 185.441L110.125 342.001C109.967 342.093 109.789 342.147 109.604 342.159V342.159Z" fill="#27104E"/>
<path d="M114.432 374.812C114.221 374.826 114.01 374.793 113.815 374.715C113.62 374.638 113.446 374.519 113.307 374.367C113.211 374.269 113.14 374.151 113.1 374.023C113.059 373.894 113.051 373.759 113.075 373.626C113.098 373.494 113.154 373.369 113.238 373.261C113.321 373.153 113.429 373.065 113.554 373.004L397.372 216.418C397.655 216.278 397.979 216.233 398.292 216.29C398.606 216.347 398.89 216.503 399.1 216.732C399.191 216.832 399.257 216.95 399.295 217.077C399.332 217.205 399.339 217.339 399.316 217.47C399.292 217.6 399.238 217.724 399.158 217.832C399.078 217.94 398.974 218.03 398.853 218.095L115.09 374.655C114.895 374.774 114.664 374.829 114.432 374.812V374.812Z" fill="#27104E"/>
<path d="M119.315 407.466C119.104 407.48 118.893 407.446 118.698 407.369C118.503 407.292 118.329 407.173 118.19 407.021C118.094 406.921 118.023 406.801 117.982 406.67C117.942 406.54 117.933 406.402 117.957 406.268C117.981 406.134 118.037 406.007 118.12 405.897C118.203 405.786 118.312 405.696 118.437 405.632L402.282 249.071C402.561 248.934 402.881 248.89 403.189 248.947C403.498 249.004 403.777 249.159 403.983 249.386C404.079 249.484 404.15 249.601 404.19 249.73C404.231 249.858 404.239 249.994 404.215 250.126C404.191 250.258 404.136 250.383 404.052 250.492C403.969 250.6 403.861 250.688 403.736 250.749L119.918 407.309C119.736 407.412 119.527 407.467 119.315 407.466V407.466Z" fill="#27104E"/>
<path d="M124.225 440.12C124.018 440.172 123.801 440.172 123.594 440.12C123.403 440.057 123.233 439.945 123.103 439.798C122.973 439.65 122.886 439.472 122.853 439.281L103.268 308.666C103.254 308.488 103.293 308.31 103.38 308.152C103.468 307.994 103.6 307.863 103.762 307.775L387.579 151.215C387.771 151.124 387.983 151.077 388.197 151.077C388.41 151.077 388.622 151.124 388.814 151.215C388.997 151.282 389.16 151.391 389.289 151.533C389.418 151.675 389.509 151.844 389.554 152.027L409.112 282.642C409.136 282.818 409.104 282.997 409.021 283.156C408.938 283.315 408.807 283.446 408.645 283.533L124.801 439.963C124.63 440.069 124.429 440.124 124.225 440.12ZM105.792 309.085L124.993 437.499L406.588 282.171L387.387 153.757L105.792 309.085Z" fill="#27104E"/>
</g>
<path d="M195.268 186.646C195.273 188.281 195.061 189.91 194.637 191.494C194.253 192.957 193.672 194.367 192.909 195.687C192.231 196.91 191.382 198.039 190.385 199.042C189.493 199.937 188.478 200.712 187.368 201.348C186.41 201.919 185.334 202.286 184.214 202.423C183.359 202.521 182.494 202.356 181.745 201.951C180.982 201.478 180.404 200.778 180.099 199.959C179.661 198.855 179.447 197.681 179.468 196.5C179.47 196.256 179.526 196.014 179.633 195.792C179.709 195.595 179.854 195.428 180.044 195.321L183.446 193.434C183.775 193.25 183.994 193.224 184.104 193.303C184.27 193.52 184.383 193.771 184.433 194.036C184.478 194.334 184.589 194.62 184.759 194.873C184.93 195.126 185.155 195.341 185.421 195.504C185.859 195.714 186.518 195.504 187.368 195.111C188.36 194.553 189.154 193.721 189.645 192.726C190.166 191.587 190.419 190.352 190.385 189.11V178.207L181.333 183.213C181.26 183.27 181.168 183.302 181.073 183.302C180.978 183.302 180.886 183.27 180.812 183.213C180.664 183.036 180.596 182.81 180.62 182.584V178.443C180.618 178.154 180.684 177.867 180.812 177.605C180.918 177.358 181.1 177.148 181.333 177.002L194.637 169.664C194.706 169.609 194.794 169.578 194.884 169.578C194.974 169.578 195.062 169.609 195.131 169.664C195.215 169.746 195.278 169.845 195.316 169.954C195.354 170.063 195.366 170.179 195.35 170.293L195.268 186.646Z" fill="#455A64"/>
<path d="M198.779 188.9C198.783 187.151 199.245 185.43 200.123 183.895C201.242 182.021 202.722 180.367 204.485 179.02L207.584 176.53C207.636 176.059 207.509 175.585 207.228 175.194C207.008 174.906 206.597 174.932 206.048 175.194C205.678 175.382 205.351 175.641 205.088 175.954C204.917 176.189 204.761 176.434 204.622 176.688C204.497 176.917 204.341 177.128 204.156 177.317C204.009 177.459 203.843 177.583 203.662 177.684L200.288 179.544C200.222 179.584 200.146 179.605 200.069 179.605C199.991 179.605 199.915 179.584 199.849 179.544C199.807 179.458 199.786 179.364 199.786 179.269C199.786 179.174 199.807 179.08 199.849 178.994C199.902 178.256 200.078 177.53 200.37 176.845C200.721 175.933 201.162 175.056 201.687 174.224C202.261 173.345 202.923 172.52 203.662 171.761C204.404 171.012 205.254 170.368 206.185 169.848C207.012 169.332 207.949 169.001 208.928 168.878C209.633 168.802 210.341 168.99 210.903 169.402C211.476 169.885 211.879 170.526 212.055 171.237C212.328 172.193 212.457 173.181 212.439 174.172V185.991C212.435 186.283 212.36 186.57 212.22 186.83C212.123 187.074 211.951 187.284 211.726 187.432L208.38 189.267C208.311 189.322 208.223 189.353 208.133 189.353C208.043 189.353 207.955 189.322 207.886 189.267C207.808 189.181 207.748 189.081 207.711 188.973C207.673 188.865 207.658 188.751 207.667 188.638V187.564C207.244 188.493 206.71 189.372 206.076 190.184C205.397 191.01 204.559 191.704 203.607 192.228C202.994 192.598 202.299 192.822 201.577 192.884C201.04 192.905 200.512 192.737 200.096 192.412C199.653 192.022 199.33 191.523 199.163 190.97C198.946 190.298 198.817 189.603 198.779 188.9V188.9ZM204.814 186.437C205.241 186.216 205.614 185.912 205.911 185.546C206.256 185.153 206.551 184.722 206.789 184.261C207.037 183.785 207.231 183.284 207.365 182.768C207.502 182.253 207.575 181.726 207.584 181.195L205.143 183.082C204.693 183.452 204.305 183.885 203.991 184.366C203.704 184.807 203.552 185.315 203.552 185.834C203.552 186.332 203.552 186.594 203.881 186.672C204.21 186.751 204.402 186.672 204.814 186.437Z" fill="#455A64"/>
<path d="M230.762 175.954C230.768 176.255 230.692 176.553 230.543 176.818C230.446 177.063 230.274 177.273 230.049 177.421L226.703 179.256C226.633 179.311 226.546 179.342 226.456 179.342C226.365 179.342 226.278 179.311 226.209 179.256C226.131 179.17 226.071 179.07 226.034 178.962C225.996 178.854 225.981 178.74 225.989 178.627V168.616C226.06 167.786 225.869 166.956 225.441 166.231C225.057 165.759 224.481 165.759 223.685 166.231C222.882 166.679 222.27 167.385 221.957 168.223C221.566 169.173 221.38 170.189 221.409 171.21V181.064C221.401 181.364 221.326 181.659 221.189 181.929C221.093 182.173 220.92 182.383 220.695 182.532L217.349 184.366C217.276 184.424 217.183 184.455 217.088 184.455C216.993 184.455 216.901 184.424 216.828 184.366C216.68 184.189 216.611 183.963 216.636 183.737V165.549C216.633 165.251 216.699 164.956 216.828 164.685C216.942 164.45 217.122 164.25 217.349 164.108L220.558 162.326C220.628 162.271 220.715 162.24 220.805 162.24C220.896 162.24 220.983 162.271 221.052 162.326C221.131 162.406 221.191 162.501 221.229 162.605C221.267 162.709 221.281 162.819 221.271 162.929V163.846C221.409 163.505 221.601 163.138 221.793 162.719C222.019 162.309 222.275 161.915 222.561 161.54C222.878 161.139 223.226 160.763 223.603 160.413C224.029 160.04 224.499 159.715 225.002 159.443C225.705 159.016 226.504 158.756 227.334 158.683C227.667 158.653 228.004 158.691 228.32 158.795C228.637 158.899 228.927 159.067 229.171 159.286C229.749 159.885 230.155 160.616 230.351 161.409C230.656 162.636 230.795 163.895 230.762 165.156V175.954Z" fill="#455A64"/>
<path d="M234.904 155.512C234.914 155.221 234.989 154.935 235.123 154.674C235.22 154.43 235.392 154.219 235.617 154.071L238.964 152.237C239.033 152.181 239.12 152.151 239.21 152.151C239.301 152.151 239.388 152.181 239.457 152.237C239.535 152.322 239.595 152.422 239.633 152.53C239.67 152.638 239.685 152.752 239.677 152.866V162.746C239.614 163.577 239.785 164.409 240.17 165.157C240.527 165.655 241.076 165.681 241.844 165.157C242.628 164.736 243.223 164.055 243.517 163.244C243.86 162.291 244.027 161.289 244.011 160.282V150.402C244.008 150.104 244.073 149.809 244.203 149.537C244.308 149.297 244.491 149.095 244.724 148.961L248.07 147.1C248.139 147.045 248.227 147.014 248.317 147.014C248.407 147.014 248.495 147.045 248.564 147.1C248.717 147.265 248.796 147.482 248.783 147.703V165.995C248.776 166.295 248.701 166.59 248.564 166.86C248.461 167.101 248.29 167.309 248.07 167.463L244.971 169.14C244.902 169.196 244.814 169.226 244.724 169.226C244.634 169.226 244.546 169.196 244.477 169.14C244.399 169.054 244.339 168.954 244.302 168.846C244.264 168.739 244.249 168.625 244.257 168.511V167.62C244.113 168.008 243.939 168.384 243.736 168.747C243.53 169.154 243.282 169.54 242.996 169.9C242.679 170.3 242.33 170.677 241.953 171.027C241.517 171.407 241.039 171.741 240.527 172.023C238.799 172.966 237.455 173.019 236.44 172.023C235.144 170.324 234.592 168.208 234.904 166.126V155.512Z" fill="#455A64"/>
<path d="M252.24 159.365C252.256 157.625 252.718 155.916 253.584 154.385C254.713 152.519 256.192 150.867 257.945 149.511L261.045 146.89C261.089 146.422 260.974 145.953 260.716 145.554C260.469 145.265 260.085 145.291 259.509 145.554C259.142 145.736 258.823 145.996 258.576 146.314C258.398 146.549 258.233 146.794 258.083 147.047C257.966 147.275 257.818 147.486 257.644 147.676C257.487 147.819 257.312 147.942 257.123 148.043L253.749 149.904C253.683 149.943 253.607 149.965 253.529 149.965C253.452 149.965 253.375 149.943 253.31 149.904C253.24 149.726 253.24 149.531 253.31 149.354C253.373 148.606 253.558 147.872 253.858 147.178C254.191 146.264 254.623 145.386 255.148 144.558C255.741 143.684 256.411 142.86 257.15 142.094C257.877 141.341 258.718 140.696 259.646 140.181C260.476 139.672 261.412 139.341 262.389 139.211C263.094 139.136 263.801 139.324 264.364 139.736C264.937 140.219 265.339 140.86 265.516 141.57C265.789 142.526 265.918 143.514 265.9 144.505V156.325C265.896 156.617 265.821 156.904 265.681 157.163C265.584 157.415 265.4 157.628 265.159 157.766L261.84 159.6C261.621 159.6 261.456 159.6 261.319 159.6C261.241 159.515 261.182 159.415 261.144 159.307C261.106 159.199 261.091 159.085 261.1 158.972V158.133C260.697 159.066 260.172 159.947 259.536 160.754C258.857 161.588 258.008 162.284 257.04 162.798C256.43 163.171 255.733 163.396 255.01 163.453C254.474 163.465 253.95 163.298 253.529 162.981C253.104 162.582 252.793 162.086 252.624 161.54C252.385 160.837 252.256 160.104 252.24 159.365V159.365ZM258.302 156.927C258.715 156.698 259.078 156.396 259.372 156.036C259.727 155.65 260.022 155.218 260.25 154.752C260.495 154.272 260.697 153.772 260.853 153.258C260.983 152.735 261.047 152.198 261.045 151.66L258.604 153.573C258.154 153.943 257.766 154.376 257.452 154.857C257.177 155.303 257.026 155.808 257.013 156.325C257.013 156.796 257.013 157.085 257.342 157.163C257.515 157.195 257.692 157.19 257.863 157.15C258.034 157.109 258.193 157.033 258.329 156.927H258.302Z" fill="#455A64"/>
<path d="M279.67 129.698C279.739 129.643 279.826 129.613 279.917 129.613C280.007 129.613 280.094 129.643 280.164 129.698C280.328 129.698 280.383 130.013 280.383 130.301V134.258C280.392 134.552 280.316 134.842 280.164 135.097C280.067 135.341 279.895 135.552 279.67 135.7L277.256 137.036C276.415 137.565 275.743 138.304 275.312 139.173C274.882 140.042 274.71 141.007 274.815 141.963V151.555C274.818 151.853 274.752 152.148 274.623 152.42C274.508 152.661 274.328 152.869 274.102 153.023L270.755 154.857C270.686 154.913 270.599 154.943 270.508 154.943C270.418 154.943 270.331 154.913 270.261 154.857C270.183 154.771 270.124 154.671 270.086 154.563C270.048 154.456 270.033 154.342 270.042 154.228V136.041C270.049 135.741 270.124 135.446 270.261 135.176C270.358 134.939 270.531 134.737 270.755 134.599L273.827 132.896C274.047 132.896 274.211 132.896 274.348 132.896C274.426 132.982 274.486 133.081 274.524 133.189C274.561 133.297 274.576 133.411 274.568 133.525V134.547C274.957 133.759 275.445 133.02 276.022 132.345C276.587 131.664 277.286 131.095 278.079 130.668L279.67 129.698Z" fill="#455A64"/>
<path d="M290.807 150.271C290.746 150.531 290.663 150.785 290.56 151.031C290.456 151.279 290.274 151.49 290.039 151.634L286.582 153.547C286.518 153.601 286.435 153.63 286.349 153.63C286.264 153.63 286.181 153.601 286.116 153.547C285.979 153.385 285.911 153.179 285.924 152.971C285.924 152.971 285.924 152.787 285.924 152.682L287.954 144.584L282.632 129.306C282.618 129.219 282.618 129.13 282.632 129.044C282.634 128.782 282.69 128.524 282.797 128.284C282.9 128.072 283.061 127.891 283.263 127.76L286.72 125.846C286.791 125.784 286.884 125.749 286.98 125.749C287.077 125.749 287.17 125.784 287.241 125.846C287.359 125.998 287.451 126.166 287.515 126.344L290.45 134.862L293.358 123.095C293.416 122.832 293.508 122.576 293.632 122.335C293.727 122.09 293.899 121.879 294.126 121.732L297.637 119.819C297.697 119.767 297.775 119.739 297.856 119.739C297.937 119.739 298.015 119.767 298.076 119.819C298.147 119.897 298.201 119.989 298.234 120.088C298.267 120.187 298.279 120.292 298.268 120.395C298.281 120.491 298.281 120.588 298.268 120.684L290.807 150.271Z" fill="#455A64"/>
<path d="M375.427 204.284L377.814 207.507C377.881 207.603 377.98 207.673 378.095 207.707C378.21 207.74 378.334 207.734 378.445 207.691L382.477 206.197C383.108 205.961 383.492 206.721 383.135 207.481L380.776 212.303C380.658 212.599 380.658 212.925 380.776 213.221L382.148 217.44C382.367 218.121 381.791 219.038 381.188 219.012L377.348 218.776C377.203 218.776 377.061 218.813 376.936 218.882C376.811 218.951 376.707 219.05 376.634 219.169L373.453 223.258C372.931 223.913 372.218 223.729 372.191 222.943V217.964C372.202 217.83 372.175 217.696 372.112 217.576C372.049 217.455 371.953 217.354 371.834 217.283L368.515 215.605C367.994 215.343 368.104 214.295 368.707 213.849L372.547 210.993C372.794 210.787 372.967 210.512 373.041 210.207L374.166 204.965C374.221 204.232 375.043 203.786 375.427 204.284Z" fill="#F28F8F"/>
<path d="M398.825 203.026C398.429 200.433 397.243 198.008 395.413 196.055C393.584 194.102 391.193 192.708 388.539 192.045C380.859 190.184 375.427 195.216 371.45 199.409C370.408 200.536 372.657 200.955 373.507 200.169C377.677 196.317 385.878 192.307 391.693 197.024C397.509 201.742 395.945 209.001 394.162 214.426C392.462 219.548 389.101 224.02 384.564 227.195C380.027 230.371 374.551 232.085 368.927 232.089C341.222 231.487 364.977 190.761 380.886 187.878C382.175 187.642 382.834 185.939 381.051 185.782C372.822 184.996 367.775 191.207 363.331 195.924C358.442 200.956 354.82 206.988 352.743 213.561C349.095 225.721 359.354 240.056 376.415 234.71C391.364 230.019 401.815 216.837 398.825 203.026Z" fill="#F28F8F"/>
<path d="M202.619 346.98C202.223 344.387 201.036 341.963 199.207 340.01C197.378 338.057 194.987 336.662 192.333 336C184.652 334.139 179.221 339.145 175.244 343.364C174.202 344.465 176.451 344.884 177.301 344.124C181.47 340.271 189.672 336.262 195.487 340.979C201.302 345.696 199.739 352.956 197.956 358.38C196.256 363.502 192.894 367.974 188.358 371.15C183.821 374.325 178.344 376.039 172.72 376.044C145.016 375.441 168.77 334.716 184.68 331.833C185.969 331.597 186.627 329.894 184.844 329.71C176.615 328.95 171.568 335.161 167.125 339.878C162.23 344.906 158.608 350.94 156.537 357.516C152.888 369.649 163.147 384.011 180.209 378.665C195.158 373.974 205.609 360.765 202.619 346.98Z" fill="#F28F8F"/>
</svg>
