<svg width="613" height="541" viewBox="0 0 613 541" fill="none" xmlns="http://www.w3.org/2000/svg">
<path d="M613 222.982V232.306C612.946 233.91 612.637 235.473 612.096 236.865C611.555 238.257 610.799 239.44 609.889 240.315L260.537 539.083C259.569 539.786 258.505 540.151 257.426 540.151C256.348 540.151 255.284 539.786 254.316 539.083L4.05885 325.168C3.14947 324.293 2.39332 323.11 1.85255 321.718C1.31178 320.326 1.00184 318.764 0.948242 317.159V307.89C1.00184 306.286 1.31178 304.723 1.85255 303.331C2.39332 301.939 3.14947 300.757 4.05885 299.882L353.411 1.11297C354.374 0.381447 355.44 0 356.522 0C357.604 0 358.67 0.381447 359.633 1.11297L609.889 215.029C610.796 215.895 611.551 217.068 612.091 218.45C612.632 219.833 612.944 221.386 613 222.982Z" fill="#001E80"/>
<path opacity="0.4" d="M3.53637 300.21C2.27731 301.691 2.38838 303.776 3.98073 305.092L254.238 519.007C255.189 519.781 256.264 520.16 257.348 520.104V540.399C256.266 540.419 255.198 540.042 254.238 539.302L3.98073 325.386C3.07135 324.511 2.3152 323.329 1.77443 321.937C1.23365 320.545 0.923714 318.983 0.870117 317.378V308.109C0.889333 306.581 1.1387 305.079 1.59999 303.713C2.06129 302.346 2.72286 301.15 3.53637 300.21Z" fill="white"/>
<path opacity="0.15" d="M610.404 215.576L610.664 215.906L611.108 216.564C611.933 217.977 612.472 219.708 612.663 221.555C612.698 221.919 612.698 222.288 612.663 222.652V231.977C612.595 233.576 612.279 235.13 611.74 236.519C611.2 237.908 610.452 239.094 609.553 239.985L260.533 539.083C259.574 539.823 258.505 540.2 257.423 540.179V520.214C258.509 520.289 259.587 519.909 260.533 519.117L609.923 220.348C610.44 219.968 610.847 219.326 611.071 218.538C611.181 218.11 611.205 217.643 611.14 217.195C611.074 216.747 610.921 216.337 610.701 216.015C610.621 215.842 610.521 215.694 610.404 215.576V215.576Z" fill="#27104E"/>
<path d="M518.271 83.6621C518.271 80.2066 516.864 76.751 513.087 73.5148C509.691 70.6957 505.871 69.1867 501.978 69.1267H501.015C491.276 69.1267 481.129 75.8186 472.501 77.6835H472.13C460.021 80.1517 453.615 74.557 447.69 73.6794C446.728 73.6015 445.764 73.6015 444.801 73.6794C443.468 73.6794 442.172 73.6794 440.728 73.6794C435.471 74.2462 430.189 74.0809 424.953 73.1857C420.768 72.5275 417.546 72.1984 415.362 72.1436H414.584C412.143 71.7884 409.686 72.4935 407.511 74.173L393.513 86.1852V93.0415L498.386 182.776L512.383 170.764C513.181 170.224 513.841 169.321 514.268 168.187C514.694 167.052 514.864 165.745 514.753 164.456V157.655C514.678 154.659 514.291 151.699 513.605 148.879C513.248 147.193 512.975 145.469 512.791 143.723C513.015 142.113 513.164 140.482 513.235 138.841C513.235 138.019 513.235 133.356 513.235 131.821C513.237 131.001 513.149 130.186 512.976 129.407C512.309 125.897 509.013 122.222 507.94 116.956C508.06 116.321 508.209 115.698 508.384 115.091C510.569 107.632 518.419 98.6361 518.419 90.5731C518.271 89.531 518.271 85.1431 518.271 83.6621ZM496.719 103.518C494.351 105.523 491.792 106.985 489.128 107.851C484.392 109.786 479.347 109.203 474.871 106.205C473.828 105.354 472.959 104.104 472.353 102.585C473.653 99.1036 475.626 96.2769 478.018 94.4676C483.821 89.5143 490.671 87.9864 497.201 90.1893C498.119 90.5507 499.003 91.0852 499.83 91.7798C500.872 92.6317 501.742 93.8818 502.348 95.4C501.113 98.8602 499.203 101.689 496.867 103.518H496.719Z" fill="#263238"/>
<path d="M407.511 74.1733L393.513 86.1855L498.386 175.866L512.383 163.908C514.161 162.372 516.086 160.288 513.605 148.879C511.124 137.47 514.087 134.618 512.976 129.407C511.865 124.197 505.31 118.712 508.384 108.18C511.458 97.6492 526.048 84.4302 513.235 73.4602C509.839 70.6411 506.019 69.1323 502.126 69.0723H501.163C491.424 69.0723 481.277 75.764 472.649 77.6289H472.279C460.169 80.0971 453.763 74.5024 447.838 73.6248C446.876 73.5469 445.912 73.5469 444.95 73.6248C443.616 73.6248 442.32 73.6248 440.876 73.6248C435.619 74.1916 430.337 74.0263 425.101 73.1311C420.916 72.4729 417.695 72.1438 415.51 72.089H414.584C412.14 71.7506 409.682 72.4749 407.511 74.1733ZM494.016 154.584C494.873 153.804 495.841 153.329 496.843 153.195C497.846 153.062 498.855 153.274 499.793 153.816C501.163 155.022 500.756 157.216 498.941 158.807C498.084 159.565 497.122 160.024 496.127 160.147C495.132 160.271 494.131 160.056 493.201 159.52C491.794 158.368 492.35 156.449 494.016 154.639V154.584ZM478.167 87.5018C483.975 82.5743 490.818 81.0479 497.349 83.2235C498.267 83.5849 499.151 84.1196 499.978 84.8142C505.125 89.2571 503.681 97.5943 496.867 103.518C494.491 105.483 491.933 106.925 489.276 107.796C484.54 109.731 479.496 109.149 475.019 106.151C469.872 101.598 471.279 93.4257 478.167 87.5567V87.5018ZM413.103 85.3628C413.96 84.6044 414.922 84.1459 415.917 84.0223C416.912 83.8987 417.912 84.1133 418.843 84.6497C420.25 85.8564 419.879 88.0504 418.028 89.5862C417.168 90.3611 416.199 90.829 415.196 90.9527C414.194 91.0765 413.185 90.8528 412.251 90.2992C410.881 89.2022 411.288 86.9533 413.103 85.4175V85.3628Z" fill="#37474F"/>
<path d="M267.124 486.591L49.3436 300.375C48.7968 299.857 48.3407 299.155 48.0124 298.325C47.6841 297.496 47.4931 296.563 47.4551 295.603V291.983C47.4931 291.023 47.6841 290.09 48.0124 289.261C48.3407 288.432 48.7968 287.729 49.3436 287.211L337.076 41.2631C337.651 40.8381 338.285 40.6169 338.928 40.6169C339.57 40.6169 340.204 40.8381 340.779 41.2631L558.56 227.479C559.101 228.015 559.55 228.731 559.871 229.568C560.192 230.406 560.377 231.344 560.412 232.306V235.871C560.372 236.824 560.184 237.751 559.863 238.578C559.542 239.406 559.096 240.113 558.56 240.643L270.827 486.701C270.252 487.135 269.613 487.353 268.967 487.334C268.321 487.314 267.688 487.06 267.124 486.591V486.591Z" fill="#F5F5F5"/>
<path d="M48.8629 287.705C48.3444 288.582 48.4925 289.679 49.3442 290.392L267.125 476.883C267.693 477.338 268.331 477.564 268.976 477.541V487.469C268.33 487.512 267.688 487.283 267.125 486.811L49.3442 300.594C48.798 300.08 48.3441 299.377 48.0216 298.546C47.6991 297.715 47.5176 296.78 47.4927 295.822V292.202C47.5422 290.498 48.0329 288.887 48.8629 287.705V287.705Z" fill="#FAFAFA"/>
<path d="M559.005 227.753L559.524 228.521L559.746 228.96C559.948 229.43 560.122 229.925 560.265 230.441C560.343 230.762 560.405 231.093 560.45 231.428C560.468 231.665 560.468 231.904 560.45 232.141V235.707C560.419 236.662 560.235 237.594 559.913 238.423C559.591 239.253 559.14 239.958 558.598 240.478L270.866 486.536C270.287 487 269.635 487.227 268.977 487.194V477.321C269.634 477.337 270.283 477.111 270.866 476.663L558.598 230.605C559.45 229.837 559.598 228.686 559.005 227.753Z" fill="#E0E0E0"/>
<path d="M318.969 96.4973L353.964 126.007L318.969 155.9L283.975 126.445L318.969 96.4973Z" fill="#FAFAFA"/>
<path d="M318.969 98.9654L286.863 126.39L318.969 153.432L351.075 126.007L318.969 98.9654ZM282.752 127.488C282.697 127.145 282.697 126.788 282.752 126.445C282.749 126.07 282.812 125.701 282.936 125.374C283.059 125.046 283.239 124.773 283.456 124.58L318.45 94.6871C318.663 94.4986 318.906 94.3992 319.154 94.3992C319.402 94.3992 319.645 94.4986 319.858 94.6871L354.852 124.142C355.066 124.338 355.243 124.613 355.366 124.939C355.489 125.266 355.553 125.633 355.553 126.007C355.553 126.38 355.489 126.747 355.366 127.074C355.243 127.4 355.066 127.675 354.852 127.872L319.858 157.765C319.645 157.953 319.402 158.053 319.154 158.053C318.906 158.053 318.663 157.953 318.45 157.765L283.456 128.255C283.164 128.142 282.912 127.867 282.752 127.488V127.488Z" fill="#455A64"/>
<path d="M370.146 142.022L367.628 144.161C367.323 144.308 367.057 144.594 366.868 144.978C366.68 145.363 366.578 145.825 366.578 146.301C366.578 146.776 366.68 147.239 366.868 147.623C367.057 148.007 367.323 148.293 367.628 148.44L490.905 253.862C491.675 254.431 492.525 254.728 493.386 254.728C494.247 254.728 495.097 254.431 495.867 253.862L498.422 251.668C498.714 251.509 498.967 251.222 499.145 250.844C499.323 250.466 499.418 250.017 499.418 249.556C499.418 249.095 499.323 248.646 499.145 248.268C498.967 247.89 498.714 247.603 498.422 247.444L375.145 142.022C374.374 141.426 373.516 141.115 372.646 141.115C371.775 141.115 370.918 141.426 370.146 142.022Z" fill="#E0E0E0"/>
<path d="M354.926 155.077L352.408 157.216C351.038 158.423 351.038 160.343 352.408 161.495L475.648 266.917C476.426 267.483 477.281 267.777 478.147 267.777C479.014 267.777 479.869 267.483 480.647 266.917L483.165 264.722C483.457 264.564 483.709 264.277 483.888 263.899C484.066 263.521 484.161 263.072 484.161 262.611C484.161 262.15 484.066 261.7 483.888 261.323C483.709 260.945 483.457 260.657 483.165 260.499L359.888 155.077C359.118 154.507 358.268 154.211 357.407 154.211C356.546 154.211 355.697 154.507 354.926 155.077V155.077Z" fill="#E0E0E0"/>
<path d="M339.743 168.076L337.188 170.215C336.882 170.362 336.617 170.648 336.428 171.032C336.239 171.417 336.138 171.879 336.138 172.354C336.138 172.83 336.239 173.292 336.428 173.677C336.617 174.061 336.882 174.347 337.188 174.494L460.464 279.916C461.235 280.485 462.084 280.782 462.946 280.782C463.807 280.782 464.656 280.485 465.427 279.916L467.982 277.721C468.274 277.563 468.526 277.276 468.704 276.898C468.882 276.52 468.978 276.071 468.978 275.61C468.978 275.149 468.882 274.699 468.704 274.322C468.526 273.944 468.274 273.656 467.982 273.498L344.705 168.076C343.94 167.48 343.088 167.169 342.224 167.169C341.359 167.169 340.508 167.48 339.743 168.076V168.076Z" fill="#E0E0E0"/>
<path d="M310.043 134.837L312.747 118.711L320.857 117.724L319.338 126.884L363.961 121.454L362.813 128.365L310.043 134.837Z" fill="#9854CB"/>
<path d="M254.83 151.348L289.824 180.857L254.83 210.75L219.873 181.241L254.83 151.348Z" fill="#FAFAFA"/>
<path d="M254.83 153.815L222.762 181.241L254.83 208.282L286.937 180.857L254.83 153.815ZM218.614 182.338C218.496 182.018 218.433 181.66 218.429 181.295C218.425 180.921 218.489 180.551 218.612 180.224C218.736 179.896 218.915 179.623 219.132 179.431L254.127 149.537C254.34 149.349 254.583 149.249 254.83 149.249C255.078 149.249 255.321 149.349 255.534 149.537L290.529 178.992C290.75 179.181 290.935 179.453 291.065 179.78C291.195 180.106 291.265 180.478 291.269 180.857C291.27 181.23 291.202 181.597 291.071 181.916C290.94 182.235 290.753 182.495 290.529 182.667L255.571 212.615C255.352 212.803 255.103 212.901 254.849 212.901C254.595 212.901 254.347 212.803 254.127 212.615L219.17 183.105C218.942 182.925 218.751 182.661 218.614 182.338V182.338Z" fill="#455A64"/>
<path d="M306.082 196.872L303.564 199.012C302.157 200.163 302.157 202.083 303.564 203.29L426.804 308.712C427.574 309.282 428.423 309.578 429.285 309.578C430.146 309.578 430.995 309.282 431.766 308.712L434.321 306.518C434.613 306.359 434.865 306.072 435.043 305.694C435.222 305.316 435.317 304.867 435.317 304.406C435.317 303.945 435.222 303.496 435.043 303.118C434.865 302.74 434.613 302.453 434.321 302.294L310.896 196.872C310.15 196.313 309.325 196.022 308.489 196.022C307.653 196.022 306.828 196.313 306.082 196.872V196.872Z" fill="#E0E0E0"/>
<path d="M290.788 209.927L288.27 212.066C287.965 212.213 287.699 212.499 287.51 212.883C287.322 213.267 287.22 213.73 287.22 214.205C287.22 214.68 287.322 215.143 287.51 215.528C287.699 215.912 287.965 216.198 288.27 216.345L411.547 321.767C412.317 322.336 413.167 322.633 414.028 322.633C414.889 322.633 415.739 322.336 416.509 321.767L419.027 319.572C420.435 318.421 420.435 316.501 419.027 315.349L295.787 209.927C295.016 209.331 294.158 209.02 293.288 209.02C292.417 209.02 291.56 209.331 290.788 209.927V209.927Z" fill="#E0E0E0"/>
<path d="M275.605 222.926L273.087 225.065C272.782 225.212 272.516 225.498 272.327 225.882C272.139 226.267 272.037 226.729 272.037 227.205C272.037 227.68 272.139 228.143 272.327 228.527C272.516 228.911 272.782 229.197 273.087 229.344L396.327 334.766C397.105 335.332 397.96 335.627 398.826 335.627C399.693 335.627 400.548 335.332 401.326 334.766L403.844 332.572C404.136 332.413 404.388 332.126 404.567 331.748C404.745 331.37 404.84 330.921 404.84 330.46C404.84 329.999 404.745 329.55 404.567 329.172C404.388 328.794 404.136 328.507 403.844 328.348L280.567 222.926C279.802 222.33 278.951 222.019 278.086 222.019C277.222 222.019 276.37 222.33 275.605 222.926V222.926Z" fill="#E0E0E0"/>
<path d="M245.943 189.687L248.646 173.561L256.756 172.574L255.201 181.734L299.86 176.304L298.675 183.215L245.943 189.687Z" fill="#9854CB"/>
<path d="M190.729 208.665L158.623 236.091L190.729 263.132L222.798 235.707L190.729 208.665ZM154.513 237.188C154.367 236.862 154.29 236.481 154.291 236.091C154.294 235.718 154.364 235.354 154.494 235.036C154.624 234.718 154.81 234.457 155.031 234.281L189.989 204.332C190.21 204.155 190.459 204.062 190.711 204.062C190.963 204.062 191.211 204.155 191.433 204.332L226.39 233.842C226.612 234.031 226.797 234.303 226.927 234.63C227.056 234.956 227.127 235.328 227.131 235.707C227.128 236.072 227.062 236.431 226.938 236.748C226.815 237.064 226.639 237.329 226.427 237.517L191.433 267.41C191.211 267.588 190.963 267.681 190.711 267.681C190.459 267.681 190.21 267.588 189.989 267.41L155.031 237.901C154.82 237.732 154.642 237.487 154.513 237.188V237.188Z" fill="#455A64"/>
<path d="M241.944 251.669L239.425 253.863C239.133 254.021 238.881 254.309 238.703 254.686C238.525 255.064 238.429 255.514 238.429 255.974C238.429 256.435 238.525 256.885 238.703 257.263C238.881 257.64 239.133 257.928 239.425 258.086L362.739 363.508C363.505 364.104 364.356 364.415 365.221 364.415C366.085 364.415 366.936 364.104 367.702 363.508L370.22 361.369C370.525 361.222 370.791 360.936 370.979 360.552C371.168 360.168 371.27 359.705 371.27 359.23C371.27 358.755 371.168 358.292 370.979 357.907C370.791 357.523 370.525 357.237 370.22 357.09L246.943 251.669C246.168 251.09 245.311 250.789 244.443 250.789C243.575 250.789 242.719 251.09 241.944 251.669V251.669Z" fill="#E0E0E0"/>
<path d="M226.687 264.777L224.132 266.916C223.839 267.075 223.587 267.362 223.409 267.74C223.231 268.118 223.135 268.567 223.135 269.028C223.135 269.489 223.231 269.938 223.409 270.316C223.587 270.694 223.839 270.981 224.132 271.14L347.408 376.617C348.179 377.186 349.028 377.483 349.89 377.483C350.751 377.483 351.6 377.186 352.371 376.617L354.926 374.423C355.218 374.264 355.47 373.977 355.648 373.599C355.826 373.221 355.922 372.772 355.922 372.311C355.922 371.85 355.826 371.4 355.648 371.023C355.47 370.645 355.218 370.358 354.926 370.199L231.649 264.777C230.884 264.181 230.032 263.87 229.168 263.87C228.303 263.87 227.452 264.181 226.687 264.777V264.777Z" fill="#E0E0E0"/>
<path d="M211.467 277.722L208.949 279.916C208.657 280.074 208.405 280.362 208.226 280.739C208.048 281.117 207.953 281.567 207.953 282.028C207.953 282.488 208.048 282.938 208.226 283.316C208.405 283.693 208.657 283.981 208.949 284.139L332.226 389.561C332.991 390.157 333.842 390.468 334.707 390.468C335.571 390.468 336.423 390.157 337.188 389.561L339.743 387.422C340.048 387.275 340.314 386.99 340.503 386.605C340.691 386.221 340.793 385.758 340.793 385.283C340.793 384.808 340.691 384.345 340.503 383.961C340.314 383.576 340.048 383.29 339.743 383.144L216.466 277.722C215.688 277.155 214.833 276.861 213.967 276.861C213.1 276.861 212.245 277.155 211.467 277.722V277.722Z" fill="#E0E0E0"/>
<path d="M180.953 246.731L183.656 230.605L191.766 229.618L190.248 238.833L234.871 233.348L233.723 240.314L180.953 246.731Z" fill="#9854CB"/>
<path d="M126.591 263.461L94.4852 290.886L126.591 317.927L158.697 290.502L126.591 263.461ZM90.3748 291.983C90.3152 291.641 90.3152 291.282 90.3748 290.94C90.3714 290.566 90.4346 290.196 90.5581 289.869C90.6816 289.541 90.861 289.268 91.0784 289.076L126.073 259.182C126.285 258.994 126.529 258.894 126.776 258.894C127.024 258.894 127.267 258.994 127.48 259.182L162.475 288.692C162.692 288.871 162.872 289.134 162.996 289.452C163.119 289.771 163.183 290.134 163.178 290.502C163.181 290.877 163.118 291.246 162.995 291.574C162.871 291.901 162.692 292.174 162.475 292.367L127.48 322.26C127.267 322.449 127.024 322.548 126.776 322.548C126.529 322.548 126.285 322.449 126.073 322.26L91.0784 292.805C90.7921 292.645 90.5463 292.358 90.3748 291.983V291.983Z" fill="#455A64"/>
<path d="M177.842 306.518L175.287 308.712C174.995 308.871 174.743 309.158 174.565 309.536C174.387 309.914 174.291 310.363 174.291 310.824C174.291 311.285 174.387 311.735 174.565 312.112C174.743 312.49 174.995 312.777 175.287 312.936L298.564 418.358C299.329 418.954 300.181 419.265 301.045 419.265C301.91 419.265 302.761 418.954 303.526 418.358L306.081 416.219C307.452 415.012 307.452 413.092 306.081 411.94L182.805 306.518C182.034 305.949 181.185 305.652 180.323 305.652C179.462 305.652 178.613 305.949 177.842 306.518Z" fill="#E0E0E0"/>
<path d="M162.549 319.573L160.031 321.767C159.739 321.926 159.487 322.213 159.308 322.591C159.13 322.968 159.035 323.418 159.035 323.879C159.035 324.34 159.13 324.789 159.308 325.167C159.487 325.545 159.739 325.832 160.031 325.991L283.271 431.413C284.043 432.009 284.9 432.32 285.77 432.32C286.641 432.32 287.498 432.009 288.27 431.413L290.788 429.273C291.093 429.127 291.359 428.841 291.548 428.456C291.736 428.072 291.838 427.609 291.838 427.134C291.838 426.659 291.736 426.196 291.548 425.812C291.359 425.428 291.093 425.142 290.788 424.995L167.511 319.573C166.741 319.003 165.891 318.707 165.03 318.707C164.169 318.707 163.32 319.003 162.549 319.573Z" fill="#E0E0E0"/>
<path d="M147.366 332.572L144.811 334.766C144.519 334.924 144.266 335.212 144.088 335.589C143.91 335.967 143.814 336.417 143.814 336.877C143.814 337.338 143.91 337.788 144.088 338.166C144.266 338.543 144.519 338.831 144.811 338.989L268.088 444.411C268.853 445.007 269.704 445.318 270.569 445.318C271.433 445.318 272.285 445.007 273.05 444.411L275.605 442.272C275.91 442.125 276.176 441.839 276.365 441.455C276.553 441.071 276.655 440.608 276.655 440.133C276.655 439.658 276.553 439.195 276.365 438.81C276.176 438.426 275.91 438.14 275.605 437.994L152.328 332.572C151.557 332.002 150.708 331.705 149.847 331.705C148.986 331.705 148.136 332.002 147.366 332.572Z" fill="#E0E0E0"/>
<path d="M116 303.83L118.704 287.704L126.814 286.717L125.258 295.877L169.918 290.447L168.733 297.358L116 303.83Z" fill="#9854CB"/>
<path d="M479.462 169.064L463.946 150.963C463.618 150.375 463.321 149.752 463.057 149.098L463.502 148.44L467.205 143.229L479.24 126.774C479.594 126.363 479.881 125.838 480.08 125.24C480.279 124.642 480.384 123.985 480.388 123.319V116.408C480.315 114.68 479.829 113.046 479.018 111.8C477.658 109.245 476.788 106.195 476.5 102.969C476.822 99.8728 477.824 97.0199 479.351 94.8514C481.103 92.7662 482.444 90.0208 483.232 86.9034C484.02 83.786 484.228 80.4118 483.832 77.1349C484.303 72.9155 483.789 68.5844 482.375 64.8554C480.962 61.1263 478.733 58.2218 476.055 56.6208C472.379 53.8748 468.323 52.4292 464.205 52.3974H463.687C457.165 52.2035 450.819 55.5381 445.838 61.7767C442.44 65.4541 438.436 67.7087 434.247 68.3039C430.715 69.1519 427.114 69.1519 423.582 68.3039C422.773 68.106 421.957 67.9777 421.138 67.9199H420.879C419.992 67.7771 419.095 67.9134 418.246 68.3198C417.397 68.7263 416.616 69.3938 415.954 70.2786L405.585 84.5397L401.882 89.7503H401.697C400.451 91.0881 399.005 91.957 397.482 92.2819C395.96 92.6068 394.407 92.3779 392.957 91.6152C387.254 88.05 384.551 86.1302 375.256 79.8225C372.559 78.0818 369.644 77.2034 366.702 77.2445V77.2445C362.343 77.3455 358.059 78.9414 354.186 81.9068V88.818L482.499 198.518C483.968 195.816 484.824 192.495 484.943 189.029V182.776C484.75 180.041 484.161 177.399 483.215 175.032C482.269 172.666 480.989 170.629 479.462 169.064V169.064ZM452.985 73.2404C455.296 70.4504 458.051 68.5827 460.987 67.8146C463.923 67.0466 466.943 67.4038 469.76 68.8524C470.371 69.1697 470.965 69.5547 471.537 70.0043C473.591 71.4538 475.212 73.9726 476.092 77.08C475.593 79.1908 474.739 81.0785 473.611 82.565C472.113 84.5274 470.362 86.02 468.464 86.9529C464.037 89.1809 459.198 88.7476 454.985 85.7462C453.976 85.8024 452.984 85.3393 452.18 84.4356C451.375 83.5318 450.807 82.2433 450.571 80.789C450.336 79.3347 450.447 77.8044 450.887 76.4583C451.327 75.1122 452.068 74.0332 452.985 73.4049V73.2404Z" fill="#37474F"/>
<path d="M354 82.6199L482.313 192.32C485.794 185.299 486.016 178.004 479.462 169.064L463.946 150.963C463.946 150.963 460.576 145.478 463.501 141.529L467.204 136.318L479.239 119.863C479.239 119.863 481.98 117.011 479.017 111.8C476.055 106.589 474.648 94.303 479.351 87.9404C486.757 77.8479 485.313 63.861 476.055 56.6208C472.378 53.8748 468.322 52.4292 464.205 52.3974H463.686C457.165 52.2035 450.819 55.5381 445.837 61.7767C442.439 65.4541 438.436 67.7087 434.247 68.3039C430.715 69.1519 427.114 69.1519 423.582 68.3039C422.773 68.106 421.957 67.9777 421.137 67.9199H420.878C419.992 67.7771 419.094 67.9134 418.246 68.3198C417.397 68.7263 416.616 69.3938 415.953 70.2786L405.584 84.5397L401.881 89.7503H401.696C400.451 91.0881 399.005 91.957 397.482 92.2819C395.959 92.6068 394.406 92.3779 392.957 91.6152C387.254 88.05 384.551 86.1302 375.256 79.8225C372.559 78.0818 369.644 77.2034 366.702 77.2445V77.2445C362.24 77.5225 357.887 79.3648 354 82.6199V82.6199ZM469.759 61.9413C470.372 62.2768 470.966 62.6802 471.537 63.148C472.828 63.7781 473.977 64.9222 474.858 66.4551C475.739 67.988 476.319 69.8505 476.533 71.8387C476.747 73.8268 476.588 75.8638 476.072 77.7268C475.557 79.5897 474.705 81.2066 473.611 82.4004C472.113 84.3628 470.362 85.8554 468.463 86.7884C464.037 89.0163 459.197 88.5831 454.984 85.5817C453.698 84.9388 452.556 83.7849 451.683 82.2461C450.81 80.7073 450.239 78.8428 450.033 76.856C449.826 74.8692 449.993 72.8367 450.513 70.9803C451.034 69.1239 451.888 67.515 452.984 66.3294C455.296 63.5394 458.05 61.6715 460.987 60.9035C463.923 60.1354 466.943 60.4927 469.759 61.9413V61.9413Z" fill="#455A64"/>
</svg>
